<svg xmlns="http://www.w3.org/2000/svg" width="1200" height="730" viewBox="0 0 1200 730" role="img" aria-label="시간파형과 FFT 스펙트럼: 같은 진동을 두 가지 질문으로 본다">
<defs>
<marker id="arr" viewBox="0 0 10 10" refX="9" refY="5" markerWidth="7" markerHeight="7" orient="auto-start-reverse"><path d="M0 0 L10 5 L0 10 Z" fill="#334155"/></marker>
<marker id="arrB" viewBox="0 0 10 10" refX="9" refY="5" markerWidth="7" markerHeight="7" orient="auto-start-reverse"><path d="M0 0 L10 5 L0 10 Z" fill="#2563eb"/></marker>
<style>
text{font-family:Arial,"Noto Sans KR",sans-serif;fill:#0f172a} .title{font-size:32px;font-weight:700}.sub{font-size:18px;fill:#64748b} .h{font-size:22px;font-weight:700}.b{font-size:17px}.s{font-size:15px;fill:#64748b} .tiny{font-size:13px;fill:#64748b} .axis{stroke:#334155;stroke-width:2;fill:none;marker-end:url(#arr)} .grid{stroke:#cbd5e1;stroke-width:1;stroke-dasharray:4 5}.panel{fill:#f8fafc;stroke:#cbd5e1;stroke-width:1.5}.label{font-size:16px;font-weight:700}.white{fill:#fff}.num{font-size:26px;font-weight:700}
</style>
</defs>
<rect width="1200" height="730" fill="#fff"/>
<text x="60" y="54" class="title">시간파형과 FFT 스펙트럼: 같은 진동을 두 가지 질문으로 본다</text>
<text x="60" y="84" class="sub">시간파형은 ‘언제·어떤 모양으로’, 스펙트럼은 ‘어느 주파수가 얼마나 큰가’를 보여준다.</text>
<rect x="55" y="125" width="535" height="470" rx="18" class="panel"/>
<text x="90" y="165" class="h">① 시간영역: 진폭 대 시간</text>
<line x1="105" y1="500" x2="545" y2="500" class="axis"/><line x1="105" y1="500" x2="105" y2="210" class="axis"/>
<line x1="105" y1="310" x2="535" y2="310" stroke="#cbd5e1" stroke-width="1.5"/>
<polyline points="105.0,310.0 106.8,296.5 108.6,283.3 110.4,270.8 112.2,259.2 114.0,248.7 115.8,239.6 117.5,232.0 119.3,226.0 121.1,221.6 122.9,218.9 124.7,217.8 126.5,218.0 128.3,219.6 130.1,222.2 131.9,225.7 133.7,229.9 135.5,234.4 137.3,239.1 139.0,243.9 140.8,248.5 142.6,252.8 144.4,256.8 146.2,260.3 148.0,263.4 149.8,266.0 151.6,268.3 153.4,270.4 155.2,272.3 157.0,274.1 158.8,275.9 160.5,277.9 162.3,280.2 164.1,282.7 165.9,285.7 167.7,289.0 169.5,292.7 171.3,296.7 173.1,300.9 174.9,305.4 176.7,310.0 178.5,314.6 180.3,319.1 182.0,323.3 183.8,327.3 185.6,331.0 187.4,334.3 189.2,337.3 191.0,339.8 192.8,342.1 194.6,344.1 196.4,345.9 198.2,347.7 200.0,349.6 201.8,351.7 203.5,354.0 205.3,356.6 207.1,359.7 208.9,363.2 210.7,367.2 212.5,371.5 214.3,376.1 216.1,380.9 217.9,385.6 219.7,390.1 221.5,394.3 223.3,397.8 225.0,400.4 226.8,402.0 228.6,402.2 230.4,401.1 232.2,398.4 234.0,394.0 235.8,388.0 237.6,380.4 239.4,371.3 241.2,360.8 243.0,349.2 244.8,336.7 246.5,323.5 248.3,310.0 250.1,296.5 251.9,283.3 253.7,270.8 255.5,259.2 257.3,248.7 259.1,239.6 260.9,232.0 262.7,226.0 264.5,221.6 266.3,218.9 268.0,217.8 269.8,218.0 271.6,219.6 273.4,222.2 275.2,225.7 277.0,229.9 278.8,234.4 280.6,239.1 282.4,243.9 284.2,248.5 286.0,252.8 287.8,256.8 289.5,260.3 291.3,263.4 293.1,266.0 294.9,268.3 296.7,270.4 298.5,272.3 300.3,274.1 302.1,275.9 303.9,277.9 305.7,280.2 307.5,282.7 309.3,285.7 311.0,289.0 312.8,292.7 314.6,296.7 316.4,300.9 318.2,305.4 320.0,310.0 321.8,314.6 323.6,319.1 325.4,323.3 327.2,327.3 329.0,331.0 330.8,334.3 332.5,337.3 334.3,339.8 336.1,342.1 337.9,344.1 339.7,345.9 341.5,347.7 343.3,349.6 345.1,351.7 346.9,354.0 348.7,356.6 350.5,359.7 352.3,363.2 354.0,367.2 355.8,371.5 357.6,376.1 359.4,380.9 361.2,385.6 363.0,390.1 364.8,394.3 366.6,397.8 368.4,400.4 370.2,402.0 372.0,402.2 373.8,401.1 375.5,398.4 377.3,394.0 379.1,388.0 380.9,380.4 382.7,371.3 384.5,360.8 386.3,349.2 388.1,336.7 389.9,323.5 391.7,310.0 393.5,296.5 395.3,283.3 397.0,270.8 398.8,259.2 400.6,248.7 402.4,239.6 404.2,232.0 406.0,226.0 407.8,221.6 409.6,218.9 411.4,217.8 413.2,218.0 415.0,219.6 416.8,222.2 418.5,225.7 420.3,229.9 422.1,234.4 423.9,239.1 425.7,243.9 427.5,248.5 429.3,252.8 431.1,256.8 432.9,260.3 434.7,263.4 436.5,266.0 438.3,268.3 440.0,270.4 441.8,272.3 443.6,274.1 445.4,275.9 447.2,277.9 449.0,280.2 450.8,282.7 452.6,285.7 454.4,289.0 456.2,292.7 458.0,296.7 459.8,300.9 461.5,305.4 463.3,310.0 465.1,314.6 466.9,319.1 468.7,323.3 470.5,327.3 472.3,331.0 474.1,334.3 475.9,337.3 477.7,339.8 479.5,342.1 481.3,344.1 483.0,345.9 484.8,347.7 486.6,349.6 488.4,351.7 490.2,354.0 492.0,356.6 493.8,359.7 495.6,363.2 497.4,367.2 499.2,371.5 501.0,376.1 502.8,380.9 504.5,385.6 506.3,390.1 508.1,394.3 509.9,397.8 511.7,400.4 513.5,402.0 515.3,402.2 517.1,401.1 518.9,398.4 520.7,394.0 522.5,388.0 524.3,380.4 526.0,371.3 527.8,360.8 529.6,349.2 531.4,336.7 533.2,323.5 535.0,310.0" fill="none" stroke="#2563eb" stroke-width="4"/>
<text x="535" y="535" text-anchor="end" class="s">시간 t</text><text x="75" y="235" transform="rotate(-90 75 235)" class="s">진폭</text>
<text x="325" y="565" text-anchor="middle" class="b">충격·간헐 접촉·변조·비주기성을 찾기 좋다</text>
<rect x="625" y="125" width="520" height="470" rx="18" class="panel"/>
<text x="660" y="165" class="h">② 주파수영역: 진폭 대 주파수</text>
<line x1="695" y1="500" x2="1090" y2="500" class="axis"/><line x1="695" y1="500" x2="695" y2="210" class="axis"/>
<rect x="760" y="255" width="46" height="245" fill="#2563eb"/><rect x="850" y="405" width="46" height="95" fill="#0f766e"/><rect x="940" y="455" width="46" height="45" fill="#d97706"/>
<text x="783" y="535" text-anchor="middle" class="label">1×</text><text x="873" y="535" text-anchor="middle" class="label">2×</text><text x="963" y="535" text-anchor="middle" class="label">3×</text>
<text x="1080" y="565" text-anchor="end" class="s">주파수 / 오더</text><text x="665" y="235" transform="rotate(-90 665 235)" class="s">진폭</text>
<text x="885" y="565" text-anchor="middle" class="b">회전수·기어메시·결함주파수와 비교</text>
<path d="M545 350 C585 350 590 350 625 350" fill="none" stroke="#334155" stroke-width="4" marker-end="url(#arr)"/>
<text x="585" y="330" text-anchor="middle" class="label">FFT</text>
<rect x="180" y="625" width="840" height="57" rx="13" fill="#fee2e2"/>
<text x="600" y="650" text-anchor="middle" class="b">피크 하나만으로 고장을 확정하지 않는다.</text>
<text x="600" y="674" text-anchor="middle" class="s">방향·위상·하중·속도·고조파·사이드밴드와 정상 기준의 추세를 함께 본다.</text>
<line x1="60" y1="688" x2="1140" y2="688" stroke="#cbd5e1"/>
<text x="60" y="713" class="tiny">합성 신호 예시 — 실제 진단은 측정 위치·센서 대역·샘플링 조건을 기록</text>
</svg>