<svg xmlns="http://www.w3.org/2000/svg" viewBox="0 0 1000 360" role="img" aria-labelledby="t d"><title id="t">Four maintenance tools</title><desc id="d">Hook spanner, socket wrench, gear puller and snap ring pliers labelled A through D</desc><rect width="1000" height="360" rx="28" fill="#f8fafc"/><g stroke="#173957" stroke-width="14" fill="none" stroke-linecap="round" stroke-linejoin="round"><path d="M55 230l145-120c40-30 72 5 42 35l-35 28"/><circle cx="215" cy="125" r="38"/><path d="M300 220h160"/><rect x="285" y="175" width="60" height="90" rx="10"/><path d="M405 175v90"/><path d="M535 250h190M630 70v180M565 70h130M565 70l40 70M695 70l-40 70"/><path d="M790 260l45-125M945 260l-45-125M835 135h65"/><circle cx="830" cy="112" r="14"/><circle cx="905" cy="112" r="14"/></g><g font-family="Arial" font-size="34" font-weight="700" fill="#16697a"><text x="130" y="325">A</text><text x="360" y="325">B</text><text x="620" y="325">C</text><text x="860" y="325">D</text></g></svg>
